<?xml version="1.0" encoding="iso-8859-1"?>
<!-- Generator: Adobe Illustrator 16.0.0, SVG Export Plug-In . SVG Version: 6.00 Build 0)  -->
<!DOCTYPE svg PUBLIC "-//W3C//DTD SVG 1.1//EN" "http://www.w3.org/Graphics/SVG/1.1/DTD/svg11.dtd">
<svg version="1.1" id="Capa_1" xmlns="http://www.w3.org/2000/svg" xmlns:xlink="http://www.w3.org/1999/xlink" x="0px" y="0px"
	 width="592.162px" height="592.163px" viewBox="0 0 592.162 592.163" style="enable-background:new 0 0 592.162 592.163;"
	 xml:space="preserve">
<g>
	<g>
		<path d="M523.08,203.416c-20.766-16.802-43.408-31.302-67.295-43.098c-24.34-12.019-50.064-21.272-76.459-27.503
			c-27.129-6.404-55.139-9.652-83.245-9.652c-28.107,0-56.115,3.248-83.246,9.652c-26.394,6.231-52.118,15.484-76.458,27.503
			c-23.888,11.796-46.529,26.296-67.295,43.098c-20.633,16.694-39.461,35.696-55.962,56.48C4.982,270.147,0.5,282.998,0.5,296.082
			s4.482,25.936,12.62,36.186c16.502,20.783,35.33,39.786,55.963,56.479c20.766,16.802,43.408,31.303,67.295,43.098
			c24.34,12.02,50.064,21.272,76.458,27.504c27.131,6.404,55.139,9.651,83.246,9.651c28.106,0,56.116-3.247,83.245-9.651
			c26.395-6.231,52.119-15.484,76.459-27.504c23.887-11.795,46.529-26.296,67.295-43.098c20.633-16.693,39.461-35.696,55.963-56.479
			c8.137-10.25,12.619-23.102,12.619-36.186c0-13.084-4.482-25.936-12.619-36.186C562.541,239.112,543.713,220.11,523.08,203.416z
			 M545.49,305.628c-28.389,35.757-64.305,65.264-105.35,86.135c5.934-8.923,11.037-18.392,15.254-28.36
			C464.422,342.057,469,319.407,469,296.082s-4.578-45.975-13.605-67.321c-4.217-9.968-9.32-19.438-15.254-28.361
			c41.045,20.871,76.961,50.379,105.35,86.134C549.934,292.128,549.934,300.035,545.49,305.628z M46.671,286.534
			c28.389-35.755,64.305-65.263,105.351-86.134c-5.935,8.923-11.038,18.392-15.254,28.36c-9.028,21.346-13.606,43.996-13.606,67.322
			c0,23.325,4.578,45.975,13.606,67.321c4.216,9.968,9.319,19.438,15.254,28.359c-41.046-20.871-76.962-50.379-105.351-86.135
			C42.23,300.035,42.23,292.128,46.671,286.534z M296.082,426.161c-71.841,0-130.079-58.239-130.079-130.079
			c0-71.84,58.238-130.079,130.079-130.079c71.84,0,130.079,58.238,130.079,130.079C426.16,367.921,367.922,426.161,296.082,426.161
			z"/>
		<path d="M296.082,469.5c-28.146,0-56.192-3.252-83.36-9.665c-26.434-6.24-52.193-15.507-76.564-27.542
			c-23.918-11.811-46.591-26.33-67.389-43.157c-20.659-16.714-39.513-35.743-56.04-56.558C4.521,322.24,0,309.279,0,296.082
			c0-13.196,4.521-26.158,12.729-36.497c16.523-20.812,35.378-39.841,56.039-56.558c20.793-16.825,43.466-31.345,67.389-43.158
			c24.373-12.036,50.133-21.302,76.564-27.542c27.169-6.413,55.216-9.665,83.36-9.665c28.146,0,56.192,3.252,83.36,9.665
			c26.432,6.24,52.191,15.506,76.565,27.542c23.924,11.814,46.597,26.334,67.388,43.158c20.66,16.716,39.515,35.745,56.04,56.558
			c8.207,10.339,12.728,23.301,12.728,36.497c0,13.196-4.521,26.157-12.728,36.496c-16.527,20.815-35.382,39.844-56.04,56.558
			c-20.795,16.825-43.468,31.346-67.388,43.157c-24.371,12.035-50.132,21.302-76.565,27.542
			C352.275,466.248,324.229,469.5,296.082,469.5z M296.082,123.663c-28.067,0-56.037,3.243-83.131,9.639
			c-26.357,6.222-52.045,15.463-76.351,27.465c-23.856,11.78-46.466,26.261-67.202,43.039
			c-20.604,16.671-39.407,35.647-55.885,56.402C5.444,270.369,1,283.11,1,296.082c0,12.973,4.443,25.713,12.512,35.875
			c16.481,20.757,35.284,39.733,55.886,56.401c20.74,16.78,43.35,31.261,67.202,43.038c24.303,12.001,49.991,21.242,76.351,27.466
			c27.093,6.395,55.062,9.638,83.131,9.638c28.07,0,56.039-3.243,83.129-9.638c26.361-6.224,52.05-15.465,76.353-27.466
			c23.854-11.779,46.465-26.259,67.202-43.038c20.602-16.668,39.404-35.645,55.886-56.401c8.067-10.163,12.511-22.904,12.511-35.875
			c0-12.971-4.443-25.711-12.511-35.875c-16.479-20.756-35.282-39.732-55.886-56.402c-20.734-16.776-43.344-31.257-67.202-43.039
			c-24.306-12.002-49.994-21.243-76.353-27.465C352.119,126.905,324.15,123.663,296.082,123.663z M296.082,426.661
			c-72.001,0-130.579-58.577-130.579-130.579c0-72.001,58.577-130.579,130.579-130.579S426.66,224.08,426.66,296.082
			C426.66,368.083,368.083,426.661,296.082,426.661z M296.082,166.503c-71.45,0-129.579,58.129-129.579,129.579
			c0,71.45,58.129,129.579,129.579,129.579S425.66,367.532,425.66,296.082C425.66,224.632,367.531,166.503,296.082,166.503z
			 M153.494,393.072l-1.698-0.863c-40.618-20.653-77.104-50.484-105.516-86.27c-4.608-5.804-4.608-13.911,0-19.716
			c28.412-35.785,64.899-65.616,105.516-86.269l1.698-0.863l-1.055,1.586c-5.922,8.904-11.04,18.418-15.21,28.278
			c-9.002,21.286-13.567,43.871-13.567,67.127c0,23.258,4.564,45.843,13.567,67.127c4.172,9.862,9.289,19.376,15.21,28.276
			L153.494,393.072z M150.564,201.709c-39.813,20.552-75.572,49.959-103.501,85.136c-4.318,5.438-4.318,13.034,0,18.473
			c27.929,35.176,63.688,64.584,103.501,85.136c-5.515-8.493-10.307-17.519-14.256-26.855
			c-9.055-21.407-13.646-44.123-13.646-67.516c0-23.391,4.591-46.106,13.646-67.517
			C140.256,219.232,145.047,210.206,150.564,201.709z M438.67,393.072l1.055-1.585c5.922-8.907,11.04-18.421,15.209-28.278
			c9.002-21.285,13.566-43.87,13.566-67.127c0-23.256-4.564-45.841-13.566-67.126c-4.17-9.858-9.287-19.373-15.209-28.279
			l-1.055-1.585l1.697,0.863c40.616,20.653,77.103,50.485,105.515,86.269c4.61,5.805,4.61,13.913,0,19.716
			c-28.41,35.784-64.896,65.616-105.515,86.27L438.67,393.072z M441.599,201.708c5.517,8.498,10.309,17.524,14.256,26.857
			c9.055,21.41,13.646,44.125,13.646,67.516c0,23.392-4.591,46.107-13.645,67.516c-3.948,9.333-8.739,18.358-14.257,26.857
			c39.813-20.554,75.572-49.961,103.5-85.137c4.319-5.438,4.319-13.035,0-18.473C517.17,251.668,481.411,222.261,441.599,201.708z"
			/>
	</g>
	<g>
		<path d="M348.322,243.841c-6.771-6.771-14.668-12.093-23.471-15.816c-9.137-3.864-18.816-5.823-28.771-5.823
			c-9.955,0-19.635,1.959-28.771,5.823c-8.803,3.723-16.699,9.044-23.471,15.815c-6.771,6.771-12.092,14.668-15.815,23.471
			c-3.864,9.136-5.823,18.816-5.823,28.771c0,9.955,1.959,19.635,5.823,28.771c3.724,8.803,9.044,16.699,15.815,23.471
			s14.668,12.093,23.471,15.815c9.136,3.864,18.816,5.823,28.771,5.823c9.954,0,19.634-1.959,28.771-5.823
			c8.803-3.724,16.699-9.044,23.471-15.815s12.092-14.668,15.816-23.471c3.863-9.137,5.822-18.816,5.822-28.771
			c0-9.955-1.959-19.634-5.822-28.771C360.414,258.508,355.094,250.612,348.322,243.841z M296.082,327.122
			c-17.143,0-31.04-13.897-31.04-31.04s13.897-31.04,31.04-31.04c17.143,0,31.04,13.897,31.04,31.04
			S313.225,327.122,296.082,327.122z"/>
		<path d="M296.081,370.461c-10.022,0-19.768-1.973-28.966-5.862c-8.862-3.748-16.812-9.105-23.629-15.923
			c-6.816-6.816-12.173-14.767-15.922-23.63c-3.89-9.196-5.863-18.942-5.863-28.965c0-10.021,1.973-19.767,5.863-28.965
			c3.748-8.862,9.105-16.812,15.922-23.63c6.817-6.817,14.767-12.174,23.629-15.922c9.198-3.89,18.943-5.863,28.966-5.863
			c10.021,0,19.768,1.973,28.965,5.863c8.862,3.748,16.812,9.105,23.63,15.923c6.815,6.814,12.173,14.764,15.924,23.628
			c3.889,9.198,5.861,18.944,5.861,28.965s-1.973,19.768-5.861,28.966c-3.751,8.864-9.108,16.814-15.924,23.63
			c-6.816,6.816-14.767,12.173-23.63,15.923C315.849,368.489,306.103,370.461,296.081,370.461z M296.081,222.702
			c-9.888,0-19.502,1.946-28.576,5.784c-8.743,3.698-16.586,8.983-23.312,15.708c-6.726,6.727-12.011,14.57-15.708,23.312
			c-3.838,9.074-5.784,18.688-5.784,28.576c0,9.889,1.946,19.503,5.784,28.576c3.699,8.743,8.983,16.586,15.708,23.312
			c6.726,6.726,14.569,12.011,23.312,15.708c9.074,3.838,18.688,5.784,28.576,5.784c9.888,0,19.502-1.946,28.576-5.784
			c8.744-3.698,16.587-8.983,23.312-15.708c6.724-6.724,12.01-14.567,15.709-23.312c3.838-9.074,5.783-18.689,5.783-28.576
			c0-9.887-1.945-19.501-5.783-28.576c-3.7-8.745-8.985-16.587-15.709-23.311c-6.726-6.726-14.569-12.011-23.312-15.709
			C315.583,224.647,305.969,222.702,296.081,222.702z M296.082,327.622c-17.391,0-31.54-14.148-31.54-31.54
			c0-17.391,14.149-31.54,31.54-31.54s31.54,14.149,31.54,31.54C327.621,313.473,313.473,327.622,296.082,327.622z M296.082,265.542
			c-16.84,0-30.54,13.7-30.54,30.54s13.7,30.54,30.54,30.54c16.839,0,30.54-13.7,30.54-30.54S312.921,265.542,296.082,265.542z"/>
	</g>
</g>
<g>
</g>
<g>
</g>
<g>
</g>
<g>
</g>
<g>
</g>
<g>
</g>
<g>
</g>
<g>
</g>
<g>
</g>
<g>
</g>
<g>
</g>
<g>
</g>
<g>
</g>
<g>
</g>
<g>
</g>
</svg>
